<svg width="78" height="87" viewBox="0 0 78 87" fill="none" xmlns="http://www.w3.org/2000/svg">
<path d="M27.7353 0.921824C29.0933 -0.318544 31.2 -0.301553 32.558 0.938816C37.3634 5.33958 41.8728 10.0802 46.0862 15.2115C48.0013 12.7648 50.1777 10.0972 52.5281 7.92226C53.9036 6.6649 56.0277 6.6649 57.4031 7.93925C63.4272 13.5464 68.5286 20.9546 72.1152 27.989C75.6496 34.9215 78 42.0069 78 47.0024C78 68.6833 60.6241 87 39 87C17.1321 87 0 68.6663 0 46.9854C0 40.4607 3.09911 32.4918 7.90446 24.6078C12.7621 16.6048 19.6219 8.26209 27.7353 0.921824ZM39.296 70.6883C43.7009 70.6883 47.6009 69.4989 51.2746 67.1201C58.6045 62.1247 60.5719 52.1338 56.167 44.2838C55.3835 42.7545 53.3813 42.6526 52.2496 43.9439L47.8621 48.9224C46.7129 50.2137 44.6411 50.1797 43.5616 48.8374C40.6888 45.2692 35.5527 38.8975 32.6277 35.2783C31.5308 33.919 29.4415 33.902 28.3272 35.2613C22.4424 42.4827 19.4826 47.0364 19.4826 52.1507C19.5 63.7898 28.3098 70.6883 39.296 70.6883Z" fill="black"/>
</svg>
