<svg width="90" height="87" viewBox="0 0 90 87" fill="none" xmlns="http://www.w3.org/2000/svg">
<path d="M60.8569 25.5393L85.3059 29.1417C87.3306 29.4305 89.0319 30.8579 89.6785 32.812C90.325 34.7831 89.7976 36.9241 88.3344 38.3854L70.6059 55.7514L74.7913 80.662C75.1316 82.701 74.2979 84.7741 72.5965 85.9805C70.9122 87.187 68.6833 87.3399 66.8628 86.3713L45.017 74.7317L23.1882 86.3713C21.3507 87.3399 19.1219 87.187 17.4375 85.9805C15.7531 84.7741 14.9024 82.701 15.2597 80.662L19.4451 55.7514L1.71326 38.3854C0.248367 36.9241 -0.272258 34.7831 0.370867 32.812C1.01229 30.8579 2.70857 29.4305 4.74854 29.1417L29.1771 25.5393L40.134 3.05355C41.0358 1.18169 42.9413 -0.0065918 45.017 -0.0065918C47.1097 -0.0065918 49.0153 1.18169 49.917 3.05355L60.8569 25.5393Z" fill="black"/>
</svg>
